<?xml version="1.0" encoding="UTF-8" standalone="no"?>
<!-- Created with Inkscape (http://www.inkscape.org/) -->
<svg
   xmlns:dc="http://purl.org/dc/elements/1.1/"
   xmlns:cc="http://web.resource.org/cc/"
   xmlns:rdf="http://www.w3.org/1999/02/22-rdf-syntax-ns#"
   xmlns:svg="http://www.w3.org/2000/svg"
   xmlns="http://www.w3.org/2000/svg"
   xmlns:sodipodi="http://sodipodi.sourceforge.net/DTD/sodipodi-0.dtd"
   xmlns:inkscape="http://www.inkscape.org/namespaces/inkscape"
   width="1052.3622"
   height="744.09448"
   id="svg2"
   sodipodi:version="0.32"
   inkscape:version="0.44"
   sodipodi:docbase="/home/erwan/work/yoplet"
   sodipodi:docname="yoplet.svg"
   inkscape:export-filename="/home/erwan/work/yoplet/yoplet.png"
   inkscape:export-xdpi="90"
   inkscape:export-ydpi="90"
   version="1.0">
  <defs
     id="defs4" />
  <sodipodi:namedview
     id="base"
     pagecolor="#ffffff"
     bordercolor="#666666"
     borderopacity="1.0"
     inkscape:pageopacity="0.0"
     inkscape:pageshadow="2"
     inkscape:zoom="0.70000001"
     inkscape:cx="593.50626"
     inkscape:cy="496.28313"
     inkscape:document-units="px"
     inkscape:current-layer="layer1"
     inkscape:window-width="1920"
     inkscape:window-height="1200"
     inkscape:window-x="0"
     inkscape:window-y="0" />
  <metadata
     id="metadata7">
    <rdf:RDF>
      <cc:Work
         rdf:about="">
        <dc:format>image/svg+xml</dc:format>
        <dc:type
           rdf:resource="http://purl.org/dc/dcmitype/StillImage" />
      </cc:Work>
    </rdf:RDF>
  </metadata>
  <g
     inkscape:label="Calque 1"
     inkscape:groupmode="layer"
     id="layer1">
    <g
       id="g5681"
       transform="translate(34.34518,2.020263)"
       inkscape:export-xdpi="222.24243"
       inkscape:export-ydpi="222.24243">
      <path
         transform="matrix(0.314347,0,0,0.269283,201.2637,24.28774)"
         d="M 200.00001,212.36219 L 99.195798,179.59515 L 15.055642,244.05911 L 15.068736,138.06304 L -72.240878,77.961457 L 28.571424,45.219322 L 58.751271,-56.389465 L 121.04361,29.370856 L 227.00539,26.674753 L 164.69187,112.41968 L 200.00001,212.36219 z "
         inkscape:randomized="0"
         inkscape:rounded="0"
         inkscape:flatsided="false"
         sodipodi:arg2="1.4010591"
         sodipodi:arg1="0.77274061"
         sodipodi:r2="79.808449"
         sodipodi:r1="159.6169"
         sodipodi:cy="100.93361"
         sodipodi:cx="85.714287"
         sodipodi:sides="5"
         id="path4786"
         style="fill:#787878;fill-opacity:1;fill-rule:nonzero;stroke:black;stroke-opacity:1"
         sodipodi:type="star" />
      <path
         transform="matrix(0.314347,0,0,0.269283,200.6146,23.73742)"
         d="M 200.00001,212.36219 L 99.195798,179.59515 L 15.055642,244.05911 L 15.068736,138.06304 L -72.240878,77.961457 L 28.571424,45.219322 L 58.751271,-56.389465 L 121.04361,29.370856 L 227.00539,26.674753 L 164.69187,112.41968 L 200.00001,212.36219 z "
         inkscape:randomized="0"
         inkscape:rounded="0"
         inkscape:flatsided="false"
         sodipodi:arg2="1.4010591"
         sodipodi:arg1="0.77274061"
         sodipodi:r2="79.808449"
         sodipodi:r1="159.6169"
         sodipodi:cy="100.93361"
         sodipodi:cx="85.714287"
         sodipodi:sides="5"
         id="path4788"
         style="fill:#9b7ccb;fill-opacity:1;fill-rule:nonzero;stroke:black;stroke-opacity:1"
         sodipodi:type="star" />
    </g>
    <g
       id="g4780"
       transform="matrix(0.750063,0,0,0.855976,-10.0379,-19.67702)"
       inkscape:export-filename="/home/erwan/work/yoplet/g5681.png"
       inkscape:export-xdpi="222.24243"
       inkscape:export-ydpi="222.24243">
      <g
         id="g6614"
         transform="translate(28.90617,3.576188)">
        <path
           sodipodi:type="star"
           style="fill:#787878;fill-opacity:1;fill-rule:nonzero;stroke:black;stroke-opacity:1"
           id="path1874"
           sodipodi:sides="5"
           sodipodi:cx="85.714287"
           sodipodi:cy="100.93361"
           sodipodi:r1="159.6169"
           sodipodi:r2="79.808449"
           sodipodi:arg1="0.77274061"
           sodipodi:arg2="1.4010591"
           inkscape:flatsided="false"
           inkscape:rounded="0"
           inkscape:randomized="0"
           d="M 200.00001,212.36219 L 99.195798,179.59515 L 15.055642,244.05911 L 15.068736,138.06304 L -72.240878,77.961457 L 28.571424,45.219322 L 58.751271,-56.389465 L 121.04361,29.370856 L 227.00539,26.674753 L 164.69187,112.41968 L 200.00001,212.36219 z "
           transform="matrix(0.60854,0,0,0.438934,64.27313,50.4067)" />
        <path
           sodipodi:type="star"
           style="fill:#b072c1;fill-opacity:1;fill-rule:nonzero;stroke:black;stroke-opacity:1"
           id="path3665"
           sodipodi:sides="5"
           sodipodi:cx="85.714287"
           sodipodi:cy="100.93361"
           sodipodi:r1="159.6169"
           sodipodi:r2="79.808449"
           sodipodi:arg1="0.77274061"
           sodipodi:arg2="1.4010591"
           inkscape:flatsided="false"
           inkscape:rounded="0"
           inkscape:randomized="0"
           d="M 200.00001,212.36219 L 99.195798,179.59515 L 15.055642,244.05911 L 15.068736,138.06304 L -72.240878,77.961457 L 28.571424,45.219322 L 58.751271,-56.389465 L 121.04361,29.370856 L 227.00539,26.674753 L 164.69187,112.41968 L 200.00001,212.36219 z "
           transform="matrix(0.60854,0,0,0.438934,63.0164,49.50968)" />
      </g>
    </g>
    <g
       id="g6579"
       transform="translate(113.6422,-1.515227)"
       inkscape:export-filename="/home/erwan/work/yoplet/g5681.png"
       inkscape:export-xdpi="222.24243"
       inkscape:export-ydpi="222.24243">
      <path
         transform="matrix(0.170601,0,0,0.144534,23.34021,164.913)"
         d="M 200.00001,212.36219 L 99.195798,179.59515 L 15.055642,244.05911 L 15.068736,138.06304 L -72.240878,77.961457 L 28.571424,45.219322 L 58.751271,-56.389465 L 121.04361,29.370856 L 227.00539,26.674753 L 164.69187,112.41968 L 200.00001,212.36219 z "
         inkscape:randomized="0"
         inkscape:rounded="0"
         inkscape:flatsided="false"
         sodipodi:arg2="1.4010591"
         sodipodi:arg1="0.77274061"
         sodipodi:r2="79.808449"
         sodipodi:r1="159.6169"
         sodipodi:cy="100.93361"
         sodipodi:cx="85.714287"
         sodipodi:sides="5"
         id="path5688"
         style="fill:#a586b7;fill-opacity:1;fill-rule:nonzero;stroke:black;stroke-opacity:1"
         sodipodi:type="star" />
      <path
         transform="matrix(0.170601,0,0,0.144534,22.98789,164.6176)"
         d="M 200.00001,212.36219 L 99.195798,179.59515 L 15.055642,244.05911 L 15.068736,138.06304 L -72.240878,77.961457 L 28.571424,45.219322 L 58.751271,-56.389465 L 121.04361,29.370856 L 227.00539,26.674753 L 164.69187,112.41968 L 200.00001,212.36219 z "
         inkscape:randomized="0"
         inkscape:rounded="0"
         inkscape:flatsided="false"
         sodipodi:arg2="1.4010591"
         sodipodi:arg1="0.77274061"
         sodipodi:r2="79.808449"
         sodipodi:r1="159.6169"
         sodipodi:cy="100.93361"
         sodipodi:cx="85.714287"
         sodipodi:sides="5"
         id="path5690"
         style="fill:#a586b7;fill-opacity:1;fill-rule:nonzero;stroke:black;stroke-opacity:1"
         sodipodi:type="star" />
    </g>
    <g
       id="g6653"
       inkscape:export-filename="/home/erwan/work/yoplet/g5681.png"
       inkscape:export-xdpi="222.24243"
       inkscape:export-ydpi="222.24243">
      <path
         transform="matrix(0.113793,0,0,9.29276e-2,24.647,139.1457)"
         d="M 200.00001,212.36219 L 99.195798,179.59515 L 15.055642,244.05911 L 15.068736,138.06304 L -72.240878,77.961457 L 28.571424,45.219322 L 58.751271,-56.389465 L 121.04361,29.370856 L 227.00539,26.674753 L 164.69187,112.41968 L 200.00001,212.36219 z "
         inkscape:randomized="0"
         inkscape:rounded="0"
         inkscape:flatsided="false"
         sodipodi:arg2="1.4010591"
         sodipodi:arg1="0.77274061"
         sodipodi:r2="79.808449"
         sodipodi:r1="159.6169"
         sodipodi:cy="100.93361"
         sodipodi:cx="85.714287"
         sodipodi:sides="5"
         id="path6606"
         style="fill:#959aad;fill-opacity:1;fill-rule:nonzero;stroke:black;stroke-opacity:1"
         sodipodi:type="star" />
      <path
         transform="matrix(0.113793,0,0,9.29276e-2,24.412,138.9558)"
         d="M 200.00001,212.36219 L 99.195798,179.59515 L 15.055642,244.05911 L 15.068736,138.06304 L -72.240878,77.961457 L 28.571424,45.219322 L 58.751271,-56.389465 L 121.04361,29.370856 L 227.00539,26.674753 L 164.69187,112.41968 L 200.00001,212.36219 z "
         inkscape:randomized="0"
         inkscape:rounded="0"
         inkscape:flatsided="false"
         sodipodi:arg2="1.4010591"
         sodipodi:arg1="0.77274061"
         sodipodi:r2="79.808449"
         sodipodi:r1="159.6169"
         sodipodi:cy="100.93361"
         sodipodi:cx="85.714287"
         sodipodi:sides="5"
         id="path6608"
         style="fill:#959aad;fill-opacity:1;fill-rule:nonzero;stroke:black;stroke-opacity:1"
         sodipodi:type="star" />
    </g>
    <path
       sodipodi:type="star"
       style="fill:white;fill-opacity:0.76862745;fill-rule:nonzero;stroke:black;stroke-opacity:1"
       id="path1887"
       sodipodi:sides="5"
       sodipodi:cx="85.714287"
       sodipodi:cy="100.93361"
       sodipodi:r1="159.6169"
       sodipodi:r2="79.808449"
       sodipodi:arg1="0.77274061"
       sodipodi:arg2="1.4010591"
       inkscape:flatsided="false"
       inkscape:rounded="0"
       inkscape:randomized="0"
       d="M 200.00001,212.36219 L 99.195798,179.59515 L 15.055642,244.05911 L 15.068736,138.06304 L -72.240878,77.961457 L 28.571424,45.219322 L 58.751271,-56.389465 L 121.04361,29.370856 L 227.00539,26.674753 L 164.69187,112.41968 L 200.00001,212.36219 z "
       transform="matrix(0.113793,0,0,9.29276e-2,993.4647,71.77812)"
       inkscape:export-filename="/home/erwan/work/yoplet/g5681.png"
       inkscape:export-xdpi="222"
       inkscape:export-ydpi="222" />
  </g>
  <g
     inkscape:groupmode="layer"
     id="layer4"
     inkscape:label="work" />
</svg>
